# Blender v2.69 (sub 0) OBJ File: ''
# www.blender.org
mtllib box.mtl
o Cube
v 1.000000 -1.000000 -1.000000
v 1.000000 -1.000000 1.000000
v -1.000000 -1.000000 1.000000
v -1.000000 -1.000000 -1.000000
v 1.000000 1.000000 -0.999999
v 0.999999 1.000000 1.000001
v -1.000000 1.000000 1.000000
v -1.000000 1.000000 -1.000000
vt 0.300964 0.263339
vt 0.062741 0.397975
vt 0.000098 0.000098
vt 0.397975 0.937259
vt 0.000098 0.999902
vt 0.263339 0.699036
vt 0.539186 0.397975
vt 0.397975 0.460814
vt 0.000098 0.398171
vt 0.128787 0.699036
vt 0.601829 0.000098
vt 0.300964 0.128787
vn 0.000000 -1.000000 0.000000
vn 0.000000 1.000000 0.000000
vn 1.000000 -0.000000 0.000000
vn 0.000000 -0.000000 1.000000
vn -1.000000 -0.000000 -0.000000
vn 0.000000 0.000000 -1.000000
vn 1.000000 0.000000 0.000001
usemtl Material
s off
f 1/1/1 2/2/1 3/3/1
f 5/4/2 8/5/2 6/6/2
f 1/1/3 5/7/3 2/2/3
f 2/8/4 6/6/4 3/9/4
f 3/9/5 7/10/5 8/5/5
f 5/7/6 1/1/6 8/11/6
f 4/12/1 1/1/1 3/3/1
f 5/4/7 6/6/7 2/8/7
f 1/1/6 4/12/6 8/11/6
f 8/5/2 7/10/2 6/6/2
f 4/12/5 3/3/5 8/11/5
f 6/6/4 7/10/4 3/9/4
